<svg id="Capa_1" enable-background="new 0 0 512 512" height="512" viewBox="0 0 512 512" width="512" xmlns="http://www.w3.org/2000/svg" xmlns:xlink="http://www.w3.org/1999/xlink"><linearGradient id="SVGID_1_" gradientUnits="userSpaceOnUse" x1="53.976" x2="458.025" y1="256" y2="256"><stop offset=".0485" stop-color="#d2deff"/><stop offset=".9993" stop-color="#dcfdee"/></linearGradient><g><g><g><path d="m170.091.39c-68.06 4.435-134.218 61.127-111.591 135.073 18.265 59.691 84.702 87.73 134.671 115.676 47.928 26.805 98.6 60.229 112.037 117.192 9.247 39.199-2.084 84.916 22.012 117.187 42.331 56.693 124.077 13.634 130.314-47.258 5.176-50.542-31.51-94.701-65.828-132.165-33.267-36.317-70.462-71.374-99.992-110.843-27.345-36.55-41.639-81.985-5.379-118.188 8.145-8.132 17.848-16.505 14.872-29.734-9.77-43.394-97.817-49.109-131.116-46.94z" fill="url(#SVGID_1_)"/></g><g><g><path d="m457.982 394.307c0-7.672 5.331-14.098 12.49-15.778 2.149-.504 3.716-2.345 3.716-4.553v-7.785c0-2.208-1.567-4.049-3.716-4.553-7.159-1.68-12.49-8.106-12.49-15.778s5.331-14.098 12.49-15.778c2.149-.504 3.716-2.345 3.716-4.553v-7.785c0-2.208-1.567-4.049-3.716-4.553-7.159-1.68-12.49-8.106-12.49-15.778s5.331-14.098 12.49-15.778c2.149-.504 3.716-2.345 3.716-4.553v-7.785c0-2.208-1.567-4.049-3.716-4.553-7.159-1.68-12.49-8.106-12.49-15.778s5.331-14.098 12.49-15.778c2.149-.504 3.716-2.345 3.716-4.553v-7.785c0-2.208-1.567-4.049-3.716-4.553-7.159-1.68-12.49-8.106-12.49-15.778s5.331-14.098 12.49-15.778c2.149-.504 3.716-2.345 3.716-4.553v-7.785c0-2.208-1.567-4.049-3.716-4.553-7.159-1.68-12.49-8.106-12.49-15.778s5.331-14.098 12.49-15.778c2.149-.504 3.716-2.345 3.716-4.553v-20.74c0-2.575-2.088-4.663-4.663-4.663h-17.08c-2.215 0-4.075 1.569-4.566 3.73-1.696 7.47-8.376 13.046-16.359 13.046s-14.663-5.576-16.359-13.046c-.49-2.16-2.351-3.73-4.566-3.73h-8.299c-2.215 0-4.075 1.569-4.566 3.73-1.696 7.47-8.376 13.046-16.359 13.046s-14.663-5.576-16.359-13.046c-.49-2.16-2.351-3.73-4.566-3.73h-8.299c-2.215 0-4.075 1.569-4.566 3.73-1.696 7.47-8.376 13.046-16.359 13.046s-14.663-5.576-16.359-13.046c-.49-2.16-2.351-3.73-4.566-3.73h-8.299c-2.215 0-4.075 1.569-4.566 3.73-1.696 7.47-8.376 13.046-16.359 13.046s-14.663-5.576-16.359-13.046c-.49-2.16-2.351-3.73-4.566-3.73h-8.299c-2.215 0-4.075 1.569-4.566 3.73-1.696 7.47-8.376 13.046-16.359 13.046s-14.663-5.576-16.359-13.046c-.49-2.16-2.351-3.73-4.566-3.73h-8.299c-2.215 0-4.075 1.569-4.566 3.73-1.696 7.47-8.376 13.046-16.359 13.046s-14.663-5.576-16.359-13.046c-.49-2.16-2.351-3.73-4.566-3.73h-8.299c-2.215 0-4.075 1.569-4.566 3.73-1.696 7.47-8.376 13.046-16.359 13.046s-14.663-5.576-16.359-13.046c-.49-2.16-2.351-3.73-4.566-3.73h-8.299c-2.215 0-4.075 1.569-4.566 3.73-1.696 7.47-8.376 13.046-16.359 13.046s-14.663-5.576-16.359-13.046c-.49-2.16-2.351-3.73-4.566-3.73h-17.08c-2.575 0-4.663 2.088-4.663 4.663v20.74c0 2.208 1.567 4.049 3.716 4.553 7.159 1.68 12.49 8.106 12.49 15.778s-5.331 14.098-12.49 15.778c-2.149.504-3.716 2.345-3.716 4.553v7.785c0 2.208 1.567 4.049 3.716 4.553 7.159 1.68 12.49 8.106 12.49 15.778s-5.331 14.098-12.49 15.778c-2.149.504-3.716 2.345-3.716 4.553v7.785c0 2.208 1.567 4.049 3.716 4.553 7.159 1.68 12.49 8.106 12.49 15.778s-5.331 14.098-12.49 15.778c-2.149.504-3.716 2.345-3.716 4.553v7.785c0 2.208 1.567 4.049 3.716 4.553 7.159 1.68 12.49 8.106 12.49 15.778s-5.331 14.098-12.49 15.778c-2.149.504-3.716 2.345-3.716 4.553v7.785c0 2.208 1.567 4.049 3.716 4.553 7.159 1.68 12.49 8.106 12.49 15.778 0 7.673-5.333 14.101-12.494 15.779-2.147.503-3.712 2.343-3.712 4.548v6.898c0 3.103 1.567 4.94 3.716 5.444 7.159 1.68 12.49 8.106 12.49 15.778s-5.331 14.098-12.49 15.778c-2.149.504-3.716 2.341-3.716 4.549v20.746c0 2.575 2.088 4.662 4.663 4.662h17.08c2.215 0 4.075-1.569 4.566-3.73 1.696-7.47 8.376-13.046 16.359-13.046s14.663 5.576 16.359 13.046c.49 2.16 2.351 3.73 4.566 3.73h8.299c2.215 0 4.075-1.569 4.566-3.73 1.696-7.47 8.376-13.046 16.359-13.046s14.663 5.576 16.359 13.046c.49 2.16 2.351 3.73 4.566 3.73h8.299c2.215 0 4.075-1.569 4.566-3.73 1.696-7.47 8.376-13.046 16.359-13.046s14.663 5.576 16.359 13.046c.49 2.16 2.351 3.73 4.566 3.73h8.299c2.215 0 4.075-1.569 4.566-3.73 1.696-7.47 8.376-13.046 16.359-13.046s14.663 5.576 16.359 13.046c.49 2.16 2.351 3.73 4.566 3.73h8.299c2.215 0 4.075-1.569 4.566-3.73 1.696-7.47 8.376-13.046 16.359-13.046s14.663 5.576 16.359 13.046c.49 2.16 2.351 3.73 4.566 3.73h8.299c2.215 0 4.075-1.569 4.566-3.73 1.696-7.47 8.376-13.046 16.359-13.046s14.663 5.576 16.359 13.046c.49 2.16 2.351 3.73 4.566 3.73h8.299c2.215 0 4.075-1.569 4.566-3.73 1.696-7.47 8.376-13.046 16.359-13.046s14.663 5.576 16.359 13.046c.49 2.16 2.351 3.73 4.566 3.73h8.299c2.215 0 4.075-1.569 4.566-3.73 1.696-7.47 8.376-13.046 16.359-13.046s14.663 5.576 16.359 13.046c.49 2.16 2.351 3.73 4.566 3.73h17.08c2.575 0 4.663-2.088 4.663-4.663v-20.74c0-2.208-1.567-4.049-3.716-4.553-7.159-1.68-12.49-8.107-12.49-15.779z" fill="#2626bc" opacity=".1"/><path d="m457.982 371.924c0-7.672 5.331-14.098 12.49-15.778 2.149-.504 3.716-2.345 3.716-4.553v-7.785c0-2.208-1.567-4.049-3.716-4.553-7.159-1.68-12.49-8.106-12.49-15.778s5.331-14.098 12.49-15.778c2.149-.504 3.716-2.345 3.716-4.553v-7.785c0-2.208-1.567-4.049-3.716-4.553-7.159-1.68-12.49-8.106-12.49-15.778s5.331-14.098 12.49-15.778c2.149-.504 3.716-2.345 3.716-4.553v-7.785c0-2.208-1.567-4.049-3.716-4.553-7.159-1.68-12.49-8.106-12.49-15.778s5.331-14.098 12.49-15.778c2.149-.504 3.716-2.345 3.716-4.553v-7.785c0-2.208-1.567-4.049-3.716-4.553-7.159-1.68-12.49-8.106-12.49-15.778s5.331-14.098 12.49-15.778c2.149-.504 3.716-2.345 3.716-4.553v-7.785c0-2.208-1.567-4.049-3.716-4.553-7.159-1.68-12.49-8.106-12.49-15.778s5.331-14.098 12.49-15.778c2.149-.504 3.716-2.345 3.716-4.553v-20.74c0-2.575-2.088-4.663-4.663-4.663h-17.08c-2.215 0-4.075 1.569-4.566 3.73-1.696 7.47-8.376 13.046-16.359 13.046s-14.663-5.576-16.359-13.046c-.49-2.16-2.351-3.73-4.566-3.73h-8.299c-2.215 0-4.075 1.569-4.566 3.73-1.696 7.47-8.376 13.046-16.359 13.046s-14.663-5.576-16.359-13.046c-.49-2.16-2.351-3.73-4.566-3.73h-8.299c-2.215 0-4.075 1.569-4.566 3.73-1.696 7.47-8.376 13.046-16.359 13.046s-14.663-5.576-16.359-13.046c-.49-2.16-2.351-3.73-4.566-3.73h-8.299c-2.215 0-4.075 1.569-4.566 3.73-1.696 7.47-8.376 13.046-16.359 13.046s-14.663-5.576-16.359-13.046c-.49-2.16-2.351-3.73-4.566-3.73h-8.299c-2.215 0-4.075 1.569-4.566 3.73-1.696 7.47-8.376 13.046-16.359 13.046s-14.663-5.576-16.359-13.046c-.49-2.16-2.351-3.73-4.566-3.73h-8.299c-2.215 0-4.075 1.569-4.566 3.73-1.696 7.47-8.376 13.046-16.359 13.046s-14.663-5.576-16.359-13.046c-.49-2.16-2.351-3.73-4.566-3.73h-8.299c-2.215 0-4.075 1.569-4.566 3.73-1.696 7.47-8.376 13.046-16.359 13.046s-14.663-5.576-16.359-13.046c-.49-2.16-2.351-3.73-4.566-3.73h-8.299c-2.215 0-4.075 1.569-4.566 3.73-1.696 7.47-8.376 13.046-16.359 13.046s-14.663-5.576-16.359-13.046c-.49-2.16-2.351-3.73-4.566-3.73h-17.08c-2.575 0-4.663 2.088-4.663 4.663v20.74c0 2.208 1.567 4.049 3.716 4.553 7.159 1.68 12.49 8.106 12.49 15.778s-5.331 14.098-12.49 15.778c-2.149.504-3.716 2.345-3.716 4.553v7.785c0 2.208 1.567 4.049 3.716 4.553 7.159 1.68 12.49 8.106 12.49 15.778s-5.331 14.098-12.49 15.778c-2.149.504-3.716 2.345-3.716 4.553v7.785c0 2.208 1.567 4.049 3.716 4.553 7.159 1.68 12.49 8.106 12.49 15.778s-5.331 14.098-12.49 15.778c-2.149.504-3.716 2.345-3.716 4.553v7.785c0 2.208 1.567 4.049 3.716 4.553 7.159 1.68 12.49 8.106 12.49 15.778s-5.331 14.098-12.49 15.778c-2.149.504-3.716 2.345-3.716 4.553v7.785c0 2.208 1.567 4.049 3.716 4.553 7.159 1.68 12.49 8.106 12.49 15.778 0 7.673-5.333 14.101-12.494 15.779-2.147.503-3.712 2.343-3.712 4.548v6.898c0 3.103 1.567 4.94 3.716 5.444 7.159 1.68 12.49 8.106 12.49 15.778s-5.331 14.098-12.49 15.778c-2.149.504-3.716 2.341-3.716 4.549v20.746c0 2.575 2.088 4.662 4.663 4.662h17.08c2.215 0 4.075-1.569 4.566-3.73 1.696-7.47 8.376-13.046 16.359-13.046s14.663 5.576 16.359 13.046c.49 2.16 2.351 3.73 4.566 3.73h8.299c2.215 0 4.075-1.569 4.566-3.73 1.696-7.47 8.376-13.046 16.359-13.046s14.663 5.576 16.359 13.046c.49 2.16 2.351 3.73 4.566 3.73h8.299c2.215 0 4.075-1.569 4.566-3.73 1.696-7.47 8.376-13.046 16.359-13.046s14.663 5.576 16.359 13.046c.49 2.16 2.351 3.73 4.566 3.73h8.299c2.215 0 4.075-1.569 4.566-3.73 1.696-7.47 8.376-13.046 16.359-13.046s14.663 5.576 16.359 13.046c.49 2.16 2.351 3.73 4.566 3.73h8.299c2.215 0 4.075-1.569 4.566-3.73 1.696-7.47 8.376-13.046 16.359-13.046s14.663 5.576 16.359 13.046c.49 2.16 2.351 3.73 4.566 3.73h8.299c2.215 0 4.075-1.569 4.566-3.73 1.696-7.47 8.376-13.046 16.359-13.046s14.663 5.576 16.359 13.046c.49 2.16 2.351 3.73 4.566 3.73h8.299c2.215 0 4.075-1.569 4.566-3.73 1.696-7.47 8.376-13.046 16.359-13.046s14.663 5.576 16.359 13.046c.49 2.16 2.351 3.73 4.566 3.73h8.299c2.215 0 4.075-1.569 4.566-3.73 1.696-7.47 8.376-13.046 16.359-13.046s14.663 5.576 16.359 13.046c.49 2.16 2.351 3.73 4.566 3.73h17.08c2.575 0 4.663-2.088 4.663-4.663v-20.74c0-2.208-1.567-4.049-3.716-4.553-7.159-1.68-12.49-8.107-12.49-15.779z" fill="#d2deff"/><path d="m429.003 144.75v212.117c0 5.148-4.178 9.326-9.326 9.326h-327.353c-5.148 0-9.326-4.178-9.326-9.326v-212.117c0-5.148 4.178-9.326 9.326-9.326h327.353c5.148 0 9.326 4.178 9.326 9.326z" fill="#9fb0fe"/><path d="m429.003 252.077v104.79c0 5.148-4.178 9.326-9.326 9.326h-327.353c-5.148 0-9.326-4.178-9.326-9.326v-104.79c45.755-28.613 106.432-46.035 173.003-46.035s127.247 17.422 173.002 46.035z" fill="#b7c5ff"/><g><g><path d="m386.586 230.627c-10.178 0-15.462-3.394-20.123-6.389-4.177-2.683-7.476-4.802-14.719-4.802s-10.543 2.119-14.72 4.803c-4.661 2.995-9.945 6.389-20.123 6.389s-15.46-3.395-20.122-6.389c-4.176-2.683-7.475-4.802-14.716-4.802s-10.54 2.119-14.716 4.802c-4.662 2.995-9.945 6.389-20.123 6.389s-15.46-3.395-20.121-6.389c-4.176-2.683-7.475-4.802-14.716-4.802-2.761 0-5-2.239-5-5s2.239-5 5-5c10.177 0 15.46 3.395 20.121 6.389 4.176 2.683 7.475 4.802 14.716 4.802 7.242 0 10.541-2.119 14.717-4.802 4.661-2.995 9.944-6.389 20.121-6.389 10.178 0 15.46 3.395 20.122 6.389 4.176 2.683 7.475 4.802 14.716 4.802 7.243 0 10.542-2.119 14.719-4.802 4.661-2.995 9.945-6.389 20.124-6.389 10.178 0 15.462 3.394 20.123 6.389 4.177 2.683 7.476 4.802 14.719 4.802 2.762 0 5 2.239 5 5s-2.237 4.999-4.999 4.999z" fill="#ff5ba8"/><circle cx="189.387" cy="220.032" fill="#02ffb3" r="63.973"/><g fill="#ff7eb8"><path d="m386.586 202.648c-10.178 0-15.462-3.394-20.123-6.389-4.177-2.683-7.476-4.802-14.719-4.802s-10.543 2.119-14.72 4.803c-4.661 2.995-9.945 6.389-20.123 6.389s-15.46-3.395-20.122-6.389c-4.176-2.683-7.475-4.802-14.716-4.802s-10.54 2.119-14.716 4.802c-4.662 2.995-9.945 6.389-20.123 6.389s-15.46-3.395-20.121-6.389c-4.176-2.683-7.475-4.802-14.716-4.802-2.761 0-5-2.239-5-5s2.239-5 5-5c10.177 0 15.46 3.395 20.121 6.389 4.176 2.683 7.475 4.802 14.716 4.802 7.242 0 10.541-2.119 14.717-4.802 4.661-2.995 9.944-6.389 20.121-6.389 10.178 0 15.46 3.395 20.122 6.389 4.176 2.683 7.475 4.802 14.716 4.802 7.243 0 10.542-2.119 14.719-4.802 4.661-2.995 9.945-6.389 20.124-6.389 10.178 0 15.462 3.394 20.123 6.389 4.177 2.683 7.476 4.802 14.719 4.802 2.762 0 5 2.239 5 5s-2.237 4.999-4.999 4.999z"/><path d="m386.586 258.606c-10.178 0-15.462-3.394-20.123-6.389-4.177-2.683-7.476-4.802-14.719-4.802s-10.543 2.119-14.72 4.803c-4.661 2.995-9.945 6.389-20.123 6.389s-15.46-3.395-20.122-6.389c-4.176-2.683-7.475-4.802-14.716-4.802s-10.54 2.119-14.716 4.802c-4.662 2.995-9.945 6.389-20.123 6.389s-15.46-3.395-20.121-6.389c-4.176-2.683-7.475-4.802-14.716-4.802-2.761 0-5-2.239-5-5s2.239-5 5-5c10.177 0 15.46 3.395 20.121 6.389 4.176 2.683 7.475 4.802 14.716 4.802 7.242 0 10.541-2.119 14.717-4.802 4.661-2.995 9.944-6.389 20.121-6.389 10.178 0 15.46 3.395 20.122 6.389 4.176 2.683 7.475 4.802 14.716 4.802 7.243 0 10.542-2.119 14.719-4.802 4.661-2.995 9.945-6.389 20.124-6.389 10.178 0 15.462 3.394 20.123 6.389 4.177 2.683 7.476 4.802 14.719 4.802 2.762 0 5 2.239 5 5s-2.237 4.999-4.999 4.999z"/></g></g><path d="m386.586 279.59c-2.762 0-5-2.239-5-5v-.107c0-2.761 2.238-5 5-5s5 2.239 5 5v.107c0 2.762-2.238 5-5 5z" fill="#ffdbed"/><path d="m134.292 165.343c-2.761 0-5-2.239-5-5v-.107c0-2.761 2.239-5 5-5s5 2.239 5 5v.107c0 2.761-2.239 5-5 5z" fill="#dcfdee"/></g></g><path d="m283.047 480.703c-1.279 0-2.56-.488-3.535-1.464l-11-11c-1.953-1.953-1.953-5.119 0-7.071l11-11c1.951-1.952 5.119-1.952 7.07 0l11 11c1.953 1.953 1.953 5.119 0 7.071l-11 11c-.975.975-2.256 1.464-3.535 1.464zm-3.929-16 3.929 3.929 3.929-3.929-3.929-3.929z" fill="#ff7eb8"/><path d="m130.912 64c-1.28 0-2.559-.488-3.536-1.464l-11-11c-1.953-1.953-1.953-5.119 0-7.071l11-11c1.953-1.952 5.118-1.952 7.071 0l11 11c1.953 1.953 1.953 5.119 0 7.071l-11 11c-.976.976-2.255 1.464-3.535 1.464zm-3.928-16 3.929 3.929 3.928-3.929-3.929-3.929z" fill="#ff7eb8"/><path d="m401.667 343.333h-126.667c-5.523 0-10-4.477-10-10v-20c0-5.523 4.477-10 10-10h126.667c5.523 0 10 4.477 10 10v20c0 5.523-4.477 10-10 10z" fill="#fff"/><path d="m401.667 303.333h-29.667v40h29.667c5.523 0 10-4.477 10-10v-20c0-5.522-4.477-10-10-10z" fill="#d2deff"/><g><path d="m244.542 343.333h-136.519c-2.762 0-5-2.239-5-5s2.238-5 5-5h136.519c2.762 0 5 2.239 5 5s-2.238 5-5 5z" fill="#8399fe"/></g><g><path d="m244.542 323.333h-40.52c-2.762 0-5-2.239-5-5s2.238-5 5-5h40.52c2.762 0 5 2.239 5 5s-2.238 5-5 5z" fill="#8399fe"/></g><path d="m215.227 486c-2.761 0-5-2.239-5-5 0-3.309-2.691-6-6-6-2.761 0-5-2.239-5-5s2.239-5 5-5c3.309 0 6-2.691 6-6 0-2.761 2.239-5 5-5s5 2.239 5 5c0 3.309 2.691 6 6 6 2.761 0 5 2.239 5 5s-2.239 5-5 5c-3.309 0-6 2.691-6 6 0 2.761-2.238 5-5 5z" fill="#01eca5"/><path d="m339.648 64.979c-2.762 0-5-2.239-5-5 0-3.309-2.691-6-6-6-2.762 0-5-2.239-5-5s2.238-5 5-5c3.309 0 6-2.691 6-6 0-2.761 2.238-5 5-5s5 2.239 5 5c0 3.309 2.691 6 6 6 2.762 0 5 2.239 5 5s-2.238 5-5 5c-3.309 0-6 2.691-6 6 0 2.762-2.239 5-5 5z" fill="#01eca5"/><path d="m385.632 53.979c-2.762 0-5-2.239-5-5 0-3.309-2.691-6-6-6-2.762 0-5-2.239-5-5s2.238-5 5-5c3.309 0 6-2.692 6-6 0-2.761 2.238-5 5-5s5 2.239 5 5c0 3.309 2.691 6 6 6 2.762 0 5 2.239 5 5s-2.238 5-5 5c-3.309 0-6 2.691-6 6 0 2.762-2.238 5-5 5z" fill="#6583fe"/></g></g><g fill="#2626bc"><path d="m469.525 78.958h-17.08c-4.54 0-8.423 3.135-9.441 7.622-1.204 5.304-6.034 9.153-11.483 9.153s-10.279-3.85-11.483-9.152c-1.019-4.488-4.901-7.623-9.441-7.623h-8.299c-4.54 0-8.423 3.135-9.441 7.622-1.204 5.304-6.034 9.153-11.483 9.153s-10.279-3.85-11.483-9.152c-1.019-4.488-4.901-7.623-9.441-7.623h-8.299c-4.54 0-8.423 3.135-9.441 7.622-1.204 5.304-6.034 9.153-11.483 9.153s-10.279-3.85-11.483-9.152c-1.019-4.488-4.901-7.623-9.441-7.623h-8.299c-4.54 0-8.423 3.135-9.441 7.622-1.204 5.304-6.034 9.153-11.483 9.153s-10.279-3.85-11.483-9.152c-1.019-4.488-4.901-7.623-9.441-7.623h-8.299c-4.54 0-8.422 3.134-9.442 7.623-1.204 5.304-6.033 9.153-11.483 9.153s-10.279-3.849-11.483-9.153c-1.02-4.488-4.902-7.622-9.442-7.622h-8.299c-4.54 0-8.422 3.134-9.442 7.623-1.204 5.304-6.033 9.153-11.483 9.153s-10.279-3.849-11.483-9.152c-1.019-4.488-4.901-7.623-9.441-7.623h-8.299c-4.54 0-8.422 3.134-9.442 7.623-1.204 5.304-6.033 9.153-11.483 9.153s-10.279-3.849-11.483-9.152c-1.019-4.488-4.901-7.623-9.441-7.623h-8.299c-4.54 0-8.422 3.134-9.442 7.623-1.204 5.304-6.033 9.153-11.483 9.153s-10.279-3.849-11.483-9.152c-1.019-4.488-4.901-7.623-9.441-7.623h-17.08c-5.329 0-9.664 4.335-9.664 9.663v20.74c0 4.5 3.114 8.375 7.574 9.421 5.082 1.192 8.631 5.678 8.631 10.91s-3.549 9.718-8.632 10.91c-4.459 1.046-7.574 4.92-7.574 9.421v7.785c0 4.5 3.114 8.375 7.574 9.421 5.082 1.192 8.631 5.679 8.631 10.91s-3.549 9.717-8.632 10.91c-4.459 1.046-7.574 4.92-7.574 9.421v7.785c0 4.5 3.114 8.375 7.574 9.421 5.083 1.192 8.632 5.679 8.632 10.91s-3.549 9.718-8.631 10.91c-4.46 1.046-7.575 4.919-7.575 9.421v7.785c0 4.5 3.114 8.374 7.574 9.42 5.083 1.192 8.632 5.679 8.632 10.91s-3.549 9.718-8.631 10.91c-4.46 1.046-7.575 4.919-7.575 9.421v7.785c0 4.501 3.115 8.375 7.574 9.42 5.083 1.192 8.632 5.679 8.632 10.91 0 5.232-3.551 9.719-8.634 10.911-4.458 1.044-7.572 4.916-7.572 9.416v6.898c0 5.185 2.973 9.232 7.574 10.312 5.083 1.192 8.632 5.679 8.632 10.91s-3.549 9.718-8.632 10.91c-4.459 1.046-7.574 4.918-7.574 9.417v20.746c0 5.327 4.335 9.661 9.664 9.661h17.08c4.541 0 8.423-3.135 9.441-7.623 1.204-5.303 6.033-9.152 11.483-9.152s10.279 3.849 11.483 9.153c1.02 4.488 4.902 7.622 9.442 7.622h8.299c4.541 0 8.423-3.135 9.441-7.623 1.204-5.303 6.033-9.152 11.483-9.152s10.279 3.849 11.483 9.153c1.02 4.488 4.902 7.622 9.442 7.622h8.299c2.761 0 5-2.239 5-5s-2.239-5-5-5h-8.026c-2.322-9.885-11.015-16.775-21.197-16.775s-18.875 6.889-21.198 16.775h-7.754c-2.322-9.885-11.015-16.775-21.197-16.775-10.183 0-18.875 6.889-21.197 16.775h-16.476v-20.122c9.55-2.308 16.206-10.763 16.206-20.612 0-9.828-6.627-18.267-16.145-20.597-.031-.129-.062-.336-.062-.625v-6.613c9.549-2.308 16.206-10.762 16.206-20.612 0-9.847-6.653-18.3-16.206-20.612v-7.223c9.549-2.308 16.206-10.763 16.206-20.612 0-9.847-6.653-18.3-16.206-20.612v-7.223c9.549-2.309 16.206-10.763 16.206-20.612 0-9.847-6.653-18.3-16.206-20.612v-7.223c9.549-2.308 16.206-10.762 16.206-20.611 0-9.848-6.654-18.301-16.206-20.612v-7.223c9.549-2.308 16.206-10.763 16.206-20.612 0-9.847-6.654-18.3-16.206-20.611v-20.123h16.471c2.322 9.886 11.015 16.775 21.198 16.775 10.182 0 18.875-6.89 21.197-16.775h7.753c2.323 9.886 11.015 16.775 21.198 16.775 10.182 0 18.875-6.89 21.197-16.775h7.754c2.322 9.886 11.015 16.775 21.197 16.775s18.875-6.89 21.197-16.775h7.754c2.322 9.886 11.015 16.775 21.197 16.775s18.875-6.89 21.197-16.775h7.754c2.322 9.885 11.016 16.775 21.197 16.775s18.874-6.889 21.197-16.775h7.754c2.322 9.885 11.016 16.775 21.197 16.775s18.874-6.889 21.197-16.775h7.754c2.322 9.885 11.016 16.775 21.197 16.775s18.874-6.889 21.197-16.775h7.754c2.322 9.885 11.016 16.775 21.197 16.775s18.874-6.889 21.197-16.775h16.471v20.403c0 2.761 2.238 5 5 5s5-2.239 5-5v-20.74c.004-5.331-4.331-9.666-9.659-9.666z"/><path d="m474.188 145.023c-2.762 0-5 2.239-5 5v7.504c-9.55 2.308-16.206 10.763-16.206 20.612 0 9.847 6.653 18.3 16.206 20.612v7.223c-9.549 2.309-16.206 10.763-16.206 20.612 0 9.847 6.653 18.3 16.206 20.612v7.223c-9.549 2.309-16.206 10.763-16.206 20.612 0 9.847 6.653 18.3 16.206 20.612v7.223c-9.549 2.309-16.206 10.763-16.206 20.612 0 9.847 6.653 18.3 16.206 20.612v7.222c-9.549 2.309-16.206 10.763-16.206 20.612 0 9.847 6.653 18.3 16.206 20.612v20.122h-16.471c-2.322-9.885-11.016-16.775-21.197-16.775s-18.874 6.889-21.197 16.775h-7.754c-2.322-9.885-11.016-16.775-21.197-16.775s-18.875 6.889-21.197 16.775h-7.754c-2.322-9.885-11.016-16.775-21.197-16.775s-18.874 6.889-21.197 16.775h-7.754c-2.322-9.885-11.016-16.775-21.197-16.775s-18.874 6.889-21.197 16.775h-7.754c-2.322-9.885-11.014-16.775-21.197-16.775-10.182 0-18.875 6.89-21.197 16.775h-8.026c-2.761 0-5 2.239-5 5s2.239 5 5 5h8.299c4.54 0 8.422-3.134 9.442-7.623 1.204-5.303 6.033-9.152 11.483-9.152s10.279 3.849 11.483 9.153c1.02 4.488 4.902 7.622 9.442 7.622h8.299c4.54 0 8.423-3.135 9.441-7.622 1.204-5.304 6.034-9.153 11.483-9.153s10.279 3.849 11.483 9.152c1.019 4.488 4.901 7.623 9.441 7.623h8.299c4.54 0 8.423-3.135 9.441-7.622 1.204-5.304 6.034-9.153 11.483-9.153s10.279 3.849 11.483 9.152c1.019 4.488 4.901 7.623 9.441 7.623h8.299c4.54 0 8.423-3.135 9.441-7.622 1.204-5.304 6.034-9.153 11.483-9.153s10.279 3.849 11.483 9.152c1.019 4.488 4.901 7.623 9.441 7.623h8.299c4.54 0 8.423-3.135 9.441-7.622 1.204-5.304 6.034-9.153 11.483-9.153s10.279 3.849 11.483 9.152c1.019 4.488 4.901 7.623 9.441 7.623h17.08c5.328 0 9.663-4.335 9.663-9.663v-20.74c0-4.5-3.114-8.375-7.574-9.421-5.082-1.192-8.632-5.679-8.632-10.91s3.55-9.718 8.633-10.91c4.459-1.046 7.573-4.92 7.573-9.42v-7.785c0-4.5-3.114-8.374-7.574-9.42-5.082-1.193-8.632-5.679-8.632-10.91s3.55-9.717 8.633-10.91c4.459-1.046 7.573-4.92 7.573-9.421v-7.785c0-4.501-3.115-8.375-7.574-9.42-5.082-1.192-8.632-5.679-8.632-10.91s3.55-9.718 8.633-10.91c4.459-1.046 7.573-4.92 7.573-9.421v-7.785c0-4.501-3.115-8.375-7.574-9.42-5.082-1.192-8.632-5.679-8.632-10.91s3.55-9.718 8.633-10.91c4.459-1.046 7.573-4.92 7.573-9.421v-7.785c0-4.501-3.115-8.375-7.574-9.42-5.082-1.193-8.632-5.679-8.632-10.91s3.55-9.718 8.633-10.91c4.459-1.046 7.573-4.92 7.573-9.421v-7.785c.003-2.765-2.236-5.004-4.997-5.004z"/></g></g></svg>