<?xml version="1.0" standalone="no"?>
<!DOCTYPE svg PUBLIC "-//W3C//DTD SVG 20010904//EN"
 "http://www.w3.org/TR/2001/REC-SVG-20010904/DTD/svg10.dtd">
<svg version="1.0" xmlns="http://www.w3.org/2000/svg"
 width="700.000000pt" height="700.000000pt" viewBox="0 0 700.000000 700.000000"
 preserveAspectRatio="xMidYMid meet">
<metadata>
Created by potrace 1.11, written by Peter Selinger 2001-2013
</metadata>
<g transform="translate(0.000000,700.000000) scale(0.100000,-0.100000)"
fill="#000000" stroke="none">
<path d="M1898 6064 c-54 -29 -58 -51 -58 -309 0 -195 3 -243 16 -270 17 -36
55 -59 116 -70 45 -8 139 -63 187 -108 46 -43 109 -141 122 -190 12 -46 6 -57
-19 -34 -29 27 -163 85 -212 92 -185 27 -306 -2 -466 -111 -51 -35 -110 -70
-131 -79 -74 -31 -221 -25 -283 13 -14 8 -56 36 -95 62 -130 87 -211 118 -330
123 -142 7 -255 -30 -393 -126 -91 -64 -142 -85 -217 -91 -100 -9 -146 -57
-128 -132 16 -68 74 -90 190 -72 86 13 159 46 267 119 114 77 177 98 272 93
83 -5 131 -24 227 -90 45 -32 105 -68 132 -80 112 -51 263 -62 388 -28 52 15
200 92 217 114 13 16 110 68 141 75 103 23 230 2 299 -51 19 -14 59 -41 88
-60 l52 -34 -15 -37 c-23 -54 -60 -106 -114 -156 -49 -46 -154 -102 -207 -110
-45 -7 -73 -27 -92 -69 -13 -30 -24 -39 -52 -44 -57 -11 -132 -48 -221 -109
-120 -83 -156 -96 -264 -96 -76 0 -134 22 -231 89 -151 102 -203 121 -344 127
-69 3 -114 0 -165 -13 -70 -17 -190 -77 -215 -107 -7 -8 -17 -15 -22 -15 -5 0
-24 -11 -41 -24 -50 -38 -101 -54 -195 -61 -80 -6 -121 -76 -87 -148 22 -48
59 -61 143 -53 37 3 81 9 97 12 41 10 161 73 226 120 77 57 142 81 222 83 101
3 152 -15 259 -92 125 -89 229 -125 363 -125 146 0 217 25 382 136 48 32 98
62 111 65 21 5 22 3 22 -77 0 -106 25 -147 99 -161 90 -17 201 -87 262 -164
59 -75 76 -117 104 -253 2 -14 -5 -12 -38 11 -104 71 -204 103 -316 103 -154
-1 -229 -25 -368 -121 -113 -77 -152 -93 -235 -97 -106 -4 -149 10 -270 93
-141 96 -218 123 -353 124 -148 2 -232 -26 -360 -116 -108 -77 -142 -92 -235
-101 -67 -8 -96 -22 -115 -58 -25 -46 -11 -103 32 -132 25 -17 44 -20 90 -18
116 5 188 32 325 123 124 82 160 95 258 94 94 -1 138 -17 237 -86 148 -103
229 -131 378 -130 141 1 209 27 388 147 81 54 128 69 222 68 89 0 137 -18 236
-87 l79 -56 -14 -28 c-24 -45 -102 -127 -155 -160 -27 -17 -77 -41 -112 -52
-35 -11 -74 -25 -86 -31 -28 -14 -53 -66 -53 -111 0 -33 -2 -35 -47 -46 -68
-17 -124 -46 -230 -118 -103 -69 -145 -84 -239 -84 -86 0 -144 20 -229 81
-191 136 -374 171 -563 109 -52 -17 -202 -105 -222 -129 -8 -10 -93 -48 -120
-54 -14 -3 -47 -8 -73 -10 -27 -3 -60 -12 -73 -21 -49 -32 -55 -108 -13 -156
18 -21 30 -24 95 -26 119 -3 208 30 354 132 105 72 129 80 240 79 107 -1 135
-11 248 -91 72 -51 169 -98 230 -112 66 -14 218 -11 276 6 76 22 112 40 206
104 47 32 102 65 123 74 l37 15 0 -46 c0 -76 23 -110 88 -134 32 -11 76 -27
100 -36 23 -9 64 -33 91 -54 153 -121 216 -297 170 -477 -23 -94 -47 -138
-109 -206 -59 -65 -129 -108 -215 -133 -125 -36 -125 -34 -125 -328 0 -261 6
-293 57 -320 24 -12 76 -15 266 -15 139 -1 247 3 263 9 38 15 62 46 70 89 13
75 71 176 135 235 113 105 238 145 391 124 69 -9 187 -63 233 -106 58 -54 135
-168 135 -201 0 -6 9 -35 20 -65 30 -80 44 -84 278 -85 166 -1 198 1 223 16
29 17 59 67 59 98 0 43 63 150 125 212 153 152 372 180 562 72 92 -53 188
-176 208 -269 13 -60 37 -99 71 -115 25 -12 71 -15 218 -15 102 1 199 6 215
11 36 13 53 38 71 104 34 130 128 244 245 300 216 104 458 39 590 -160 19 -29
47 -90 61 -135 40 -124 31 -121 347 -118 l259 3 29 33 29 32 0 253 c0 310 3
301 -122 341 -146 47 -256 146 -308 278 -35 88 -36 244 -2 333 49 131 160 232
300 278 132 42 132 41 132 294 0 248 0 248 -120 287 -139 45 -237 124 -293
239 -109 224 -29 484 188 611 22 13 73 34 113 45 110 33 112 37 112 286 0 243
-4 254 -97 281 -228 65 -366 239 -364 459 2 215 141 386 364 449 45 13 62 24
78 49 18 30 19 47 17 290 l-3 259 -33 29 -32 29 -253 0 c-309 0 -301 3 -340
-119 -52 -159 -150 -267 -287 -316 -66 -24 -78 -26 -165 -26 -132 -1 -247 51
-340 153 -54 59 -71 90 -99 178 -26 79 -44 106 -80 120 -15 5 -108 10 -213 10
-245 0 -252 -3 -293 -145 -27 -90 -104 -190 -189 -244 -192 -124 -443 -90
-596 81 -44 49 -105 160 -105 192 0 29 -32 83 -60 100 -42 24 -409 24 -451 -1
-29 -17 -59 -67 -59 -97 0 -34 -59 -143 -103 -192 -244 -270 -677 -178 -788
167 -46 143 -37 139 -346 139 -191 -1 -243 -4 -265 -16z"/>
</g>
</svg>
